<?xml version="1.0" encoding="utf-8"?>
<!-- Generator: Adobe Illustrator 28.2.0, SVG Export Plug-In . SVG Version: 6.00 Build 0)  -->
<svg version="1.1" id="Layer_1" xmlns="http://www.w3.org/2000/svg" xmlns:xlink="http://www.w3.org/1999/xlink" x="0px" y="0px"
	 viewBox="0 0 90 90" style="enable-background:new 0 0 90 90;" xml:space="preserve">
<style type="text/css">
	.st0{fill:#674BCF;}
	.st1{fill:#FFFFFF;}
</style>
<g>
	<circle class="st0" cx="45" cy="45" r="41.1"/>
	<g>
		<circle class="st1" cx="34.4" cy="32" r="5.2"/>
		<path class="st1" d="M44.6,46.6H24.3c0-4.5,4.5-8.2,10.1-8.2S44.6,42.1,44.6,46.6z"/>
		<circle class="st1" cx="60.4" cy="48.7" r="5.2"/>
		<path class="st1" d="M70.5,63.3H50.2c0-4.5,4.5-8.2,10.1-8.2S70.5,58.8,70.5,63.3z"/>
		<g>
			<path class="st1" d="M49,41.3c-0.2,0-0.4-0.1-0.5-0.3l-1.2-2.6H46c-1.2,0-2.2-1-2.2-2.2v-7.8c0-1.2,1-2.2,2.2-2.2h21.2
				c1.2,0,2.2,1,2.2,2.2v7.8c0,1.2-1,2.2-2.2,2.2H50.3l-0.7,2.5C49.5,41.1,49.3,41.3,49,41.3C49,41.3,49,41.3,49,41.3z M46,27.3
				c-0.6,0-1.1,0.5-1.1,1.1v7.8c0,0.6,0.5,1.1,1.1,1.1h1.7c0.2,0,0.4,0.1,0.5,0.3l0.7,1.5l0.4-1.4c0.1-0.3,0.3-0.4,0.6-0.4h17.3
				c0.6,0,1.1-0.5,1.1-1.1v-7.8c0-0.6-0.5-1.1-1.1-1.1L46,27.3z"/>
			<g>
				<path class="st1" d="M49.9,34.5c-1.2,0-2.2-1-2.2-2.2c0-1.2,1-2.2,2.2-2.2s2.2,1,2.2,2.2C52.1,33.5,51.1,34.5,49.9,34.5z
					 M49.9,31.3c-0.6,0-1,0.5-1,1c0,0.6,0.5,1,1,1s1-0.5,1-1C50.9,31.7,50.5,31.3,49.9,31.3z"/>
				<path class="st1" d="M56.6,34.5c-1.2,0-2.2-1-2.2-2.2c0-1.2,1-2.2,2.2-2.2s2.2,1,2.2,2.2C58.7,33.5,57.8,34.5,56.6,34.5z
					 M56.6,31.3c-0.6,0-1,0.5-1,1c0,0.6,0.5,1,1,1s1-0.5,1-1C57.6,31.7,57.1,31.3,56.6,31.3z"/>
				<path class="st1" d="M63.2,34.5c-1.2,0-2.2-1-2.2-2.2c0-1.2,1-2.2,2.2-2.2s2.2,1,2.2,2.2C65.4,33.5,64.4,34.5,63.2,34.5z
					 M63.2,31.3c-0.6,0-1,0.5-1,1c0,0.6,0.5,1,1,1s1-0.5,1-1C64.2,31.7,63.8,31.3,63.2,31.3z"/>
			</g>
		</g>
		<g>
			<path class="st1" d="M39.9,63.9C39.9,63.9,39.8,63.9,39.9,63.9c-0.3,0-0.5-0.2-0.6-0.4L38.6,61H21.7c-1.2,0-2.2-1-2.2-2.2v-7.8
				c0-1.2,1-2.2,2.2-2.2h21.2c1.2,0,2.2,1,2.2,2.2v7.8c0,1.2-1,2.2-2.2,2.2h-1.4l-1.2,2.6C40.3,63.7,40.1,63.9,39.9,63.9z
				 M21.7,49.8c-0.6,0-1.1,0.5-1.1,1.1v7.8c0,0.6,0.5,1.1,1.1,1.1H39c0.3,0,0.5,0.2,0.6,0.4l0.4,1.4l0.7-1.5
				c0.1-0.2,0.3-0.3,0.5-0.3h1.7c0.6,0,1.1-0.5,1.1-1.1v-7.8c0-0.6-0.5-1.1-1.1-1.1H21.7z"/>
			<g>
				<path class="st1" d="M39,57c-1.2,0-2.2-1-2.2-2.2s1-2.2,2.2-2.2s2.2,1,2.2,2.2S40.2,57,39,57z M39,53.8c-0.6,0-1,0.5-1,1
					s0.5,1,1,1c0.6,0,1-0.5,1-1S39.5,53.8,39,53.8z"/>
				<path class="st1" d="M32.3,57c-1.2,0-2.2-1-2.2-2.2s1-2.2,2.2-2.2s2.2,1,2.2,2.2S33.5,57,32.3,57z M32.3,53.8c-0.6,0-1,0.5-1,1
					s0.5,1,1,1c0.6,0,1-0.5,1-1S32.9,53.8,32.3,53.8z"/>
				<path class="st1" d="M25.7,57c-1.2,0-2.2-1-2.2-2.2s1-2.2,2.2-2.2s2.2,1,2.2,2.2S26.9,57,25.7,57z M25.7,53.8c-0.6,0-1,0.5-1,1
					s0.5,1,1,1c0.6,0,1-0.5,1-1S26.3,53.8,25.7,53.8z"/>
			</g>
		</g>
	</g>
</g>
</svg>
