<svg xmlns="http://www.w3.org/2000/svg" xmlns:xlink="http://www.w3.org/1999/xlink" width="112" zoomAndPan="magnify" viewBox="0 0 84 46.499999" height="62" preserveAspectRatio="xMidYMid meet" version="1.0"><defs><clipPath id="04d4b4d315"><path d="M 0.445312 0 L 30 0 L 30 34 L 0.445312 34 Z M 0.445312 0 " clip-rule="nonzero"/></clipPath><clipPath id="1eb9204ad4"><path d="M 29.164062 17.890625 C 29.164062 22.339844 27.6875 26.144531 24.789062 29.191406 C 21.847656 32.265625 18.28125 33.765625 13.898438 33.765625 L 2.488281 33.765625 C 1.859375 33.765625 1.273438 33.476562 0.886719 32.964844 C 0.507812 32.460938 0.390625 31.808594 0.566406 31.191406 L 8.050781 6.078125 L 5.707031 5.242188 L 12.957031 0 L 15.21875 8.660156 L 12.890625 7.828125 L 6.953125 28.335938 L 13.890625 28.335938 C 16.789062 28.335938 19.179688 27.359375 20.996094 25.429688 C 22.8125 23.511719 23.730469 20.976562 23.730469 17.898438 C 23.730469 14.820312 22.8125 12.285156 20.996094 10.363281 C 20.1875 9.503906 19.257812 8.832031 18.230469 8.363281 L 17.945312 8.230469 L 16.359375 2.164062 L 17.40625 2.394531 C 20.230469 3.023438 22.707031 4.433594 24.777344 6.597656 C 27.726562 9.691406 29.15625 13.390625 29.15625 17.898438 Z M 29.164062 17.890625 " clip-rule="nonzero"/></clipPath><linearGradient x1="19.34" gradientTransform="matrix(0.741423, 0, 0, 0.741423, 0.486467, 0)" y1="0" x2="19.34" gradientUnits="userSpaceOnUse" y2="45.54" id="33016985b7"><stop stop-opacity="1" stop-color="rgb(76.078796%, 58.039856%, 91.758728%)" offset="0"/><stop stop-opacity="1" stop-color="rgb(75.830078%, 57.821655%, 91.618347%)" offset="0.00390625"/><stop stop-opacity="1" stop-color="rgb(75.582886%, 57.603455%, 91.477966%)" offset="0.0078125"/><stop stop-opacity="1" stop-color="rgb(75.334167%, 57.385254%, 91.33606%)" offset="0.0117187"/><stop stop-opacity="1" stop-color="rgb(75.086975%, 57.168579%, 91.195679%)" offset="0.015625"/><stop stop-opacity="1" stop-color="rgb(74.838257%, 56.950378%, 91.053772%)" offset="0.0195312"/><stop stop-opacity="1" stop-color="rgb(74.589539%, 56.733704%, 90.913391%)" offset="0.0234375"/><stop stop-opacity="1" stop-color="rgb(74.34082%, 56.515503%, 90.77301%)" offset="0.0273438"/><stop stop-opacity="1" stop-color="rgb(74.093628%, 56.298828%, 90.632629%)" offset="0.03125"/><stop stop-opacity="1" stop-color="rgb(73.84491%, 56.080627%, 90.490723%)" offset="0.0351562"/><stop stop-opacity="1" stop-color="rgb(73.597717%, 55.863953%, 90.350342%)" offset="0.0390625"/><stop stop-opacity="1" stop-color="rgb(73.348999%, 55.645752%, 90.208435%)" offset="0.0429687"/><stop stop-opacity="1" stop-color="rgb(73.101807%, 55.429077%, 90.068054%)" offset="0.046875"/><stop stop-opacity="1" stop-color="rgb(72.853088%, 55.210876%, 89.927673%)" offset="0.0507812"/><stop stop-opacity="1" stop-color="rgb(72.60437%, 54.994202%, 89.787292%)" offset="0.0546875"/><stop stop-opacity="1" stop-color="rgb(72.355652%, 54.776001%, 89.645386%)" offset="0.0585938"/><stop stop-opacity="1" stop-color="rgb(72.108459%, 54.559326%, 89.505005%)" offset="0.0625"/><stop stop-opacity="1" stop-color="rgb(71.859741%, 54.341125%, 89.363098%)" offset="0.0664062"/><stop stop-opacity="1" stop-color="rgb(71.612549%, 54.122925%, 89.222717%)" offset="0.0703125"/><stop stop-opacity="1" stop-color="rgb(71.363831%, 53.904724%, 89.082336%)" offset="0.0742187"/><stop stop-opacity="1" stop-color="rgb(71.116638%, 53.688049%, 88.941956%)" offset="0.078125"/><stop stop-opacity="1" stop-color="rgb(70.86792%, 53.469849%, 88.800049%)" offset="0.0820312"/><stop stop-opacity="1" stop-color="rgb(70.619202%, 53.253174%, 88.659668%)" offset="0.0859375"/><stop stop-opacity="1" stop-color="rgb(70.370483%, 53.034973%, 88.517761%)" offset="0.0898437"/><stop stop-opacity="1" stop-color="rgb(70.123291%, 52.818298%, 88.37738%)" offset="0.09375"/><stop stop-opacity="1" stop-color="rgb(69.874573%, 52.600098%, 88.237%)" offset="0.0976562"/><stop stop-opacity="1" stop-color="rgb(69.62738%, 52.383423%, 88.096619%)" offset="0.101562"/><stop stop-opacity="1" stop-color="rgb(69.378662%, 52.165222%, 87.954712%)" offset="0.105469"/><stop stop-opacity="1" stop-color="rgb(69.129944%, 51.948547%, 87.814331%)" offset="0.109375"/><stop stop-opacity="1" stop-color="rgb(68.881226%, 51.730347%, 87.672424%)" offset="0.113281"/><stop stop-opacity="1" stop-color="rgb(68.634033%, 51.513672%, 87.532043%)" offset="0.117188"/><stop stop-opacity="1" stop-color="rgb(68.385315%, 51.295471%, 87.390137%)" offset="0.121094"/><stop stop-opacity="1" stop-color="rgb(68.138123%, 51.077271%, 87.249756%)" offset="0.125"/><stop stop-opacity="1" stop-color="rgb(67.889404%, 50.85907%, 87.109375%)" offset="0.128906"/><stop stop-opacity="1" stop-color="rgb(67.642212%, 50.642395%, 86.968994%)" offset="0.132812"/><stop stop-opacity="1" stop-color="rgb(67.393494%, 50.424194%, 86.827087%)" offset="0.136719"/><stop stop-opacity="1" stop-color="rgb(67.144775%, 50.20752%, 86.686707%)" offset="0.140625"/><stop stop-opacity="1" stop-color="rgb(66.896057%, 49.989319%, 86.5448%)" offset="0.144531"/><stop stop-opacity="1" stop-color="rgb(66.648865%, 49.772644%, 86.404419%)" offset="0.148437"/><stop stop-opacity="1" stop-color="rgb(66.400146%, 49.554443%, 86.264038%)" offset="0.152344"/><stop stop-opacity="1" stop-color="rgb(66.152954%, 49.337769%, 86.123657%)" offset="0.15625"/><stop stop-opacity="1" stop-color="rgb(65.904236%, 49.119568%, 85.98175%)" offset="0.160156"/><stop stop-opacity="1" stop-color="rgb(65.657043%, 48.902893%, 85.84137%)" offset="0.164062"/><stop stop-opacity="1" stop-color="rgb(65.408325%, 48.684692%, 85.699463%)" offset="0.167969"/><stop stop-opacity="1" stop-color="rgb(65.159607%, 48.468018%, 85.559082%)" offset="0.171875"/><stop stop-opacity="1" stop-color="rgb(64.910889%, 48.249817%, 85.418701%)" offset="0.175781"/><stop stop-opacity="1" stop-color="rgb(64.663696%, 48.033142%, 85.27832%)" offset="0.179687"/><stop stop-opacity="1" stop-color="rgb(64.414978%, 47.814941%, 85.136414%)" offset="0.183594"/><stop stop-opacity="1" stop-color="rgb(64.167786%, 47.596741%, 84.996033%)" offset="0.1875"/><stop stop-opacity="1" stop-color="rgb(63.919067%, 47.37854%, 84.854126%)" offset="0.191406"/><stop stop-opacity="1" stop-color="rgb(63.670349%, 47.161865%, 84.713745%)" offset="0.195312"/><stop stop-opacity="1" stop-color="rgb(63.421631%, 46.943665%, 84.573364%)" offset="0.199219"/><stop stop-opacity="1" stop-color="rgb(63.174438%, 46.72699%, 84.432983%)" offset="0.203125"/><stop stop-opacity="1" stop-color="rgb(62.92572%, 46.508789%, 84.291077%)" offset="0.207031"/><stop stop-opacity="1" stop-color="rgb(62.678528%, 46.292114%, 84.150696%)" offset="0.210938"/><stop stop-opacity="1" stop-color="rgb(62.42981%, 46.073914%, 84.008789%)" offset="0.214844"/><stop stop-opacity="1" stop-color="rgb(62.182617%, 45.857239%, 83.868408%)" offset="0.21875"/><stop stop-opacity="1" stop-color="rgb(61.933899%, 45.639038%, 83.728027%)" offset="0.222656"/><stop stop-opacity="1" stop-color="rgb(61.685181%, 45.422363%, 83.587646%)" offset="0.226562"/><stop stop-opacity="1" stop-color="rgb(61.436462%, 45.204163%, 83.44574%)" offset="0.230469"/><stop stop-opacity="1" stop-color="rgb(61.18927%, 44.987488%, 83.305359%)" offset="0.234375"/><stop stop-opacity="1" stop-color="rgb(60.940552%, 44.769287%, 83.163452%)" offset="0.238281"/><stop stop-opacity="1" stop-color="rgb(60.693359%, 44.551086%, 83.023071%)" offset="0.242188"/><stop stop-opacity="1" stop-color="rgb(60.444641%, 44.332886%, 82.88269%)" offset="0.246094"/><stop stop-opacity="1" stop-color="rgb(60.197449%, 44.116211%, 82.74231%)" offset="0.25"/><stop stop-opacity="1" stop-color="rgb(59.94873%, 43.89801%, 82.600403%)" offset="0.253906"/><stop stop-opacity="1" stop-color="rgb(59.700012%, 43.681335%, 82.460022%)" offset="0.257812"/><stop stop-opacity="1" stop-color="rgb(59.451294%, 43.463135%, 82.318115%)" offset="0.261719"/><stop stop-opacity="1" stop-color="rgb(59.204102%, 43.24646%, 82.177734%)" offset="0.265625"/><stop stop-opacity="1" stop-color="rgb(58.955383%, 43.028259%, 82.037354%)" offset="0.269531"/><stop stop-opacity="1" stop-color="rgb(58.708191%, 42.811584%, 81.896973%)" offset="0.273437"/><stop stop-opacity="1" stop-color="rgb(58.459473%, 42.593384%, 81.755066%)" offset="0.277344"/><stop stop-opacity="1" stop-color="rgb(58.210754%, 42.376709%, 81.614685%)" offset="0.28125"/><stop stop-opacity="1" stop-color="rgb(57.962036%, 42.158508%, 81.472778%)" offset="0.285156"/><stop stop-opacity="1" stop-color="rgb(57.714844%, 41.941833%, 81.332397%)" offset="0.289062"/><stop stop-opacity="1" stop-color="rgb(57.466125%, 41.723633%, 81.192017%)" offset="0.292969"/><stop stop-opacity="1" stop-color="rgb(57.218933%, 41.506958%, 81.051636%)" offset="0.296875"/><stop stop-opacity="1" stop-color="rgb(56.970215%, 41.288757%, 80.909729%)" offset="0.300781"/><stop stop-opacity="1" stop-color="rgb(56.723022%, 41.070557%, 80.769348%)" offset="0.304687"/><stop stop-opacity="1" stop-color="rgb(56.474304%, 40.852356%, 80.627441%)" offset="0.308594"/><stop stop-opacity="1" stop-color="rgb(56.225586%, 40.635681%, 80.487061%)" offset="0.3125"/><stop stop-opacity="1" stop-color="rgb(55.976868%, 40.41748%, 80.34668%)" offset="0.316406"/><stop stop-opacity="1" stop-color="rgb(55.729675%, 40.200806%, 80.206299%)" offset="0.320312"/><stop stop-opacity="1" stop-color="rgb(55.480957%, 39.982605%, 80.064392%)" offset="0.324219"/><stop stop-opacity="1" stop-color="rgb(55.233765%, 39.76593%, 79.924011%)" offset="0.328125"/><stop stop-opacity="1" stop-color="rgb(54.985046%, 39.547729%, 79.782104%)" offset="0.332031"/><stop stop-opacity="1" stop-color="rgb(54.737854%, 39.331055%, 79.641724%)" offset="0.335937"/><stop stop-opacity="1" stop-color="rgb(54.489136%, 39.112854%, 79.499817%)" offset="0.339844"/><stop stop-opacity="1" stop-color="rgb(54.240417%, 38.896179%, 79.359436%)" offset="0.34375"/><stop stop-opacity="1" stop-color="rgb(53.991699%, 38.677979%, 79.219055%)" offset="0.347656"/><stop stop-opacity="1" stop-color="rgb(53.744507%, 38.461304%, 79.078674%)" offset="0.351562"/><stop stop-opacity="1" stop-color="rgb(53.495789%, 38.243103%, 78.936768%)" offset="0.355469"/><stop stop-opacity="1" stop-color="rgb(53.248596%, 38.024902%, 78.796387%)" offset="0.359375"/><stop stop-opacity="1" stop-color="rgb(52.999878%, 37.806702%, 78.65448%)" offset="0.363281"/><stop stop-opacity="1" stop-color="rgb(52.75116%, 37.590027%, 78.514099%)" offset="0.367187"/><stop stop-opacity="1" stop-color="rgb(52.502441%, 37.371826%, 78.373718%)" offset="0.371094"/><stop stop-opacity="1" stop-color="rgb(52.255249%, 37.155151%, 78.233337%)" offset="0.375"/><stop stop-opacity="1" stop-color="rgb(52.006531%, 36.936951%, 78.091431%)" offset="0.378906"/><stop stop-opacity="1" stop-color="rgb(51.759338%, 36.720276%, 77.95105%)" offset="0.382812"/><stop stop-opacity="1" stop-color="rgb(51.51062%, 36.502075%, 77.809143%)" offset="0.386719"/><stop stop-opacity="1" stop-color="rgb(51.263428%, 36.2854%, 77.668762%)" offset="0.390625"/><stop stop-opacity="1" stop-color="rgb(51.014709%, 36.0672%, 77.528381%)" offset="0.394531"/><stop stop-opacity="1" stop-color="rgb(50.765991%, 35.850525%, 77.388%)" offset="0.398438"/><stop stop-opacity="1" stop-color="rgb(50.517273%, 35.632324%, 77.246094%)" offset="0.402344"/><stop stop-opacity="1" stop-color="rgb(50.270081%, 35.415649%, 77.105713%)" offset="0.40625"/><stop stop-opacity="1" stop-color="rgb(50.021362%, 35.197449%, 76.963806%)" offset="0.410156"/><stop stop-opacity="1" stop-color="rgb(49.77417%, 34.980774%, 76.823425%)" offset="0.414062"/><stop stop-opacity="1" stop-color="rgb(49.525452%, 34.762573%, 76.683044%)" offset="0.417969"/><stop stop-opacity="1" stop-color="rgb(49.278259%, 34.544373%, 76.542664%)" offset="0.421875"/><stop stop-opacity="1" stop-color="rgb(49.029541%, 34.326172%, 76.400757%)" offset="0.425781"/><stop stop-opacity="1" stop-color="rgb(48.780823%, 34.109497%, 76.260376%)" offset="0.429688"/><stop stop-opacity="1" stop-color="rgb(48.532104%, 33.891296%, 76.118469%)" offset="0.433594"/><stop stop-opacity="1" stop-color="rgb(48.284912%, 33.674622%, 75.978088%)" offset="0.4375"/><stop stop-opacity="1" stop-color="rgb(48.036194%, 33.456421%, 75.837708%)" offset="0.441406"/><stop stop-opacity="1" stop-color="rgb(47.789001%, 33.239746%, 75.697327%)" offset="0.445312"/><stop stop-opacity="1" stop-color="rgb(47.540283%, 33.021545%, 75.55542%)" offset="0.449219"/><stop stop-opacity="1" stop-color="rgb(47.291565%, 32.804871%, 75.415039%)" offset="0.453125"/><stop stop-opacity="1" stop-color="rgb(47.042847%, 32.58667%, 75.273132%)" offset="0.457031"/><stop stop-opacity="1" stop-color="rgb(46.795654%, 32.369995%, 75.132751%)" offset="0.460938"/><stop stop-opacity="1" stop-color="rgb(46.546936%, 32.151794%, 74.992371%)" offset="0.464844"/><stop stop-opacity="1" stop-color="rgb(46.299744%, 31.93512%, 74.85199%)" offset="0.46875"/><stop stop-opacity="1" stop-color="rgb(46.051025%, 31.716919%, 74.710083%)" offset="0.472656"/><stop stop-opacity="1" stop-color="rgb(45.803833%, 31.498718%, 74.569702%)" offset="0.476562"/><stop stop-opacity="1" stop-color="rgb(45.555115%, 31.280518%, 74.427795%)" offset="0.480469"/><stop stop-opacity="1" stop-color="rgb(45.306396%, 31.063843%, 74.287415%)" offset="0.484375"/><stop stop-opacity="1" stop-color="rgb(45.057678%, 30.845642%, 74.147034%)" offset="0.488281"/><stop stop-opacity="1" stop-color="rgb(44.810486%, 30.628967%, 74.006653%)" offset="0.492188"/><stop stop-opacity="1" stop-color="rgb(44.561768%, 30.410767%, 73.864746%)" offset="0.496094"/><stop stop-opacity="1" stop-color="rgb(44.314575%, 30.194092%, 73.724365%)" offset="0.5"/><stop stop-opacity="1" stop-color="rgb(44.065857%, 29.975891%, 73.582458%)" offset="0.503906"/><stop stop-opacity="1" stop-color="rgb(43.818665%, 29.759216%, 73.442078%)" offset="0.507812"/><stop stop-opacity="1" stop-color="rgb(43.569946%, 29.541016%, 73.301697%)" offset="0.511719"/><stop stop-opacity="1" stop-color="rgb(43.321228%, 29.324341%, 73.161316%)" offset="0.515625"/><stop stop-opacity="1" stop-color="rgb(43.07251%, 29.10614%, 73.019409%)" offset="0.519531"/><stop stop-opacity="1" stop-color="rgb(42.825317%, 28.889465%, 72.879028%)" offset="0.523438"/><stop stop-opacity="1" stop-color="rgb(42.576599%, 28.671265%, 72.737122%)" offset="0.527344"/><stop stop-opacity="1" stop-color="rgb(42.329407%, 28.45459%, 72.596741%)" offset="0.53125"/><stop stop-opacity="1" stop-color="rgb(42.080688%, 28.236389%, 72.45636%)" offset="0.535156"/><stop stop-opacity="1" stop-color="rgb(41.83197%, 28.018188%, 72.315979%)" offset="0.539062"/><stop stop-opacity="1" stop-color="rgb(41.583252%, 27.799988%, 72.174072%)" offset="0.542969"/><stop stop-opacity="1" stop-color="rgb(41.33606%, 27.583313%, 72.033691%)" offset="0.546875"/><stop stop-opacity="1" stop-color="rgb(41.087341%, 27.365112%, 71.891785%)" offset="0.550781"/><stop stop-opacity="1" stop-color="rgb(40.840149%, 27.148438%, 71.751404%)" offset="0.554687"/><stop stop-opacity="1" stop-color="rgb(40.591431%, 26.930237%, 71.609497%)" offset="0.558594"/><stop stop-opacity="1" stop-color="rgb(40.344238%, 26.713562%, 71.469116%)" offset="0.5625"/><stop stop-opacity="1" stop-color="rgb(40.09552%, 26.495361%, 71.328735%)" offset="0.566406"/><stop stop-opacity="1" stop-color="rgb(39.846802%, 26.278687%, 71.188354%)" offset="0.570312"/><stop stop-opacity="1" stop-color="rgb(39.598083%, 26.060486%, 71.046448%)" offset="0.574219"/><stop stop-opacity="1" stop-color="rgb(39.350891%, 25.843811%, 70.906067%)" offset="0.578125"/><stop stop-opacity="1" stop-color="rgb(39.102173%, 25.62561%, 70.76416%)" offset="0.582031"/><stop stop-opacity="1" stop-color="rgb(38.85498%, 25.408936%, 70.623779%)" offset="0.585937"/><stop stop-opacity="1" stop-color="rgb(38.606262%, 25.190735%, 70.483398%)" offset="0.589844"/><stop stop-opacity="1" stop-color="rgb(38.357544%, 24.97406%, 70.343018%)" offset="0.59375"/><stop stop-opacity="1" stop-color="rgb(38.108826%, 24.755859%, 70.201111%)" offset="0.597656"/><stop stop-opacity="1" stop-color="rgb(37.861633%, 24.537659%, 70.06073%)" offset="0.601562"/><stop stop-opacity="1" stop-color="rgb(37.612915%, 24.319458%, 69.918823%)" offset="0.605469"/><stop stop-opacity="1" stop-color="rgb(37.365723%, 24.102783%, 69.778442%)" offset="0.609375"/><stop stop-opacity="1" stop-color="rgb(37.117004%, 23.884583%, 69.638062%)" offset="0.613281"/><stop stop-opacity="1" stop-color="rgb(36.869812%, 23.667908%, 69.497681%)" offset="0.617187"/><stop stop-opacity="1" stop-color="rgb(36.621094%, 23.449707%, 69.355774%)" offset="0.621094"/><stop stop-opacity="1" stop-color="rgb(36.372375%, 23.233032%, 69.215393%)" offset="0.625"/><stop stop-opacity="1" stop-color="rgb(36.123657%, 23.014832%, 69.073486%)" offset="0.628906"/><stop stop-opacity="1" stop-color="rgb(35.876465%, 22.798157%, 68.933105%)" offset="0.632812"/><stop stop-opacity="1" stop-color="rgb(35.627747%, 22.579956%, 68.792725%)" offset="0.636719"/><stop stop-opacity="1" stop-color="rgb(35.380554%, 22.363281%, 68.652344%)" offset="0.640625"/><stop stop-opacity="1" stop-color="rgb(35.131836%, 22.145081%, 68.510437%)" offset="0.644531"/><stop stop-opacity="1" stop-color="rgb(34.884644%, 21.928406%, 68.370056%)" offset="0.648437"/><stop stop-opacity="1" stop-color="rgb(34.635925%, 21.710205%, 68.228149%)" offset="0.652344"/><stop stop-opacity="1" stop-color="rgb(34.387207%, 21.492004%, 68.087769%)" offset="0.65625"/><stop stop-opacity="1" stop-color="rgb(34.138489%, 21.273804%, 67.947388%)" offset="0.660156"/><stop stop-opacity="1" stop-color="rgb(33.891296%, 21.057129%, 67.807007%)" offset="0.664062"/><stop stop-opacity="1" stop-color="rgb(33.642578%, 20.838928%, 67.6651%)" offset="0.667969"/><stop stop-opacity="1" stop-color="rgb(33.395386%, 20.622253%, 67.524719%)" offset="0.671875"/><stop stop-opacity="1" stop-color="rgb(33.146667%, 20.404053%, 67.382812%)" offset="0.675781"/><stop stop-opacity="1" stop-color="rgb(32.897949%, 20.187378%, 67.242432%)" offset="0.679687"/><stop stop-opacity="1" stop-color="rgb(32.649231%, 19.969177%, 67.102051%)" offset="0.683594"/><stop stop-opacity="1" stop-color="rgb(32.402039%, 19.752502%, 66.96167%)" offset="0.6875"/><stop stop-opacity="1" stop-color="rgb(32.15332%, 19.534302%, 66.819763%)" offset="0.691406"/><stop stop-opacity="1" stop-color="rgb(31.906128%, 19.317627%, 66.679382%)" offset="0.695312"/><stop stop-opacity="1" stop-color="rgb(31.65741%, 19.099426%, 66.537476%)" offset="0.699219"/><stop stop-opacity="1" stop-color="rgb(31.410217%, 18.882751%, 66.397095%)" offset="0.703125"/><stop stop-opacity="1" stop-color="rgb(31.161499%, 18.664551%, 66.256714%)" offset="0.707031"/><stop stop-opacity="1" stop-color="rgb(30.912781%, 18.447876%, 66.116333%)" offset="0.710937"/><stop stop-opacity="1" stop-color="rgb(30.664062%, 18.229675%, 65.974426%)" offset="0.714844"/><stop stop-opacity="1" stop-color="rgb(30.41687%, 18.011475%, 65.834045%)" offset="0.71875"/><stop stop-opacity="1" stop-color="rgb(30.168152%, 17.793274%, 65.692139%)" offset="0.722656"/><stop stop-opacity="1" stop-color="rgb(29.920959%, 17.576599%, 65.551758%)" offset="0.726562"/><stop stop-opacity="1" stop-color="rgb(29.672241%, 17.358398%, 65.411377%)" offset="0.730469"/><stop stop-opacity="1" stop-color="rgb(29.425049%, 17.141724%, 65.270996%)" offset="0.734375"/><stop stop-opacity="1" stop-color="rgb(29.176331%, 16.923523%, 65.129089%)" offset="0.738281"/><stop stop-opacity="1" stop-color="rgb(28.927612%, 16.706848%, 64.988708%)" offset="0.742187"/><stop stop-opacity="1" stop-color="rgb(28.678894%, 16.488647%, 64.846802%)" offset="0.746094"/><stop stop-opacity="1" stop-color="rgb(28.431702%, 16.271973%, 64.706421%)" offset="0.75"/><stop stop-opacity="1" stop-color="rgb(28.182983%, 16.053772%, 64.56604%)" offset="0.753906"/><stop stop-opacity="1" stop-color="rgb(27.935791%, 15.837097%, 64.425659%)" offset="0.757812"/><stop stop-opacity="1" stop-color="rgb(27.687073%, 15.618896%, 64.283752%)" offset="0.761719"/><stop stop-opacity="1" stop-color="rgb(27.438354%, 15.402222%, 64.143372%)" offset="0.765625"/><stop stop-opacity="1" stop-color="rgb(27.189636%, 15.184021%, 64.001465%)" offset="0.769531"/><stop stop-opacity="1" stop-color="rgb(26.942444%, 14.96582%, 63.861084%)" offset="0.773437"/><stop stop-opacity="1" stop-color="rgb(26.693726%, 14.74762%, 63.719177%)" offset="0.777344"/><stop stop-opacity="1" stop-color="rgb(26.446533%, 14.530945%, 63.578796%)" offset="0.78125"/><stop stop-opacity="1" stop-color="rgb(26.197815%, 14.312744%, 63.438416%)" offset="0.785156"/><stop stop-opacity="1" stop-color="rgb(25.950623%, 14.096069%, 63.298035%)" offset="0.789062"/><stop stop-opacity="1" stop-color="rgb(25.701904%, 13.877869%, 63.156128%)" offset="0.792969"/><stop stop-opacity="1" stop-color="rgb(25.453186%, 13.661194%, 63.015747%)" offset="0.796875"/><stop stop-opacity="1" stop-color="rgb(25.204468%, 13.442993%, 62.87384%)" offset="0.800781"/><stop stop-opacity="1" stop-color="rgb(24.957275%, 13.226318%, 62.733459%)" offset="0.804687"/><stop stop-opacity="1" stop-color="rgb(24.708557%, 13.008118%, 62.593079%)" offset="0.808594"/><stop stop-opacity="1" stop-color="rgb(24.461365%, 12.791443%, 62.452698%)" offset="0.8125"/><stop stop-opacity="1" stop-color="rgb(24.212646%, 12.573242%, 62.310791%)" offset="0.816406"/><stop stop-opacity="1" stop-color="rgb(23.965454%, 12.356567%, 62.17041%)" offset="0.820312"/><stop stop-opacity="1" stop-color="rgb(23.716736%, 12.138367%, 62.028503%)" offset="0.824219"/><stop stop-opacity="1" stop-color="rgb(23.468018%, 11.921692%, 61.888123%)" offset="0.828125"/><stop stop-opacity="1" stop-color="rgb(23.219299%, 11.703491%, 61.747742%)" offset="0.832031"/><stop stop-opacity="1" stop-color="rgb(22.972107%, 11.485291%, 61.607361%)" offset="0.835937"/><stop stop-opacity="1" stop-color="rgb(22.723389%, 11.26709%, 61.465454%)" offset="0.839844"/><stop stop-opacity="1" stop-color="rgb(22.476196%, 11.050415%, 61.325073%)" offset="0.84375"/><stop stop-opacity="1" stop-color="rgb(22.227478%, 10.832214%, 61.183167%)" offset="0.847656"/><stop stop-opacity="1" stop-color="rgb(21.97876%, 10.61554%, 61.042786%)" offset="0.851562"/><stop stop-opacity="1" stop-color="rgb(21.730042%, 10.397339%, 60.902405%)" offset="0.855469"/><stop stop-opacity="1" stop-color="rgb(21.482849%, 10.180664%, 60.762024%)" offset="0.859375"/><stop stop-opacity="1" stop-color="rgb(21.234131%, 9.962463%, 60.620117%)" offset="0.863281"/><stop stop-opacity="1" stop-color="rgb(20.986938%, 9.745789%, 60.479736%)" offset="0.867187"/><stop stop-opacity="1" stop-color="rgb(20.73822%, 9.527588%, 60.33783%)" offset="0.871094"/><stop stop-opacity="1" stop-color="rgb(20.491028%, 9.310913%, 60.197449%)" offset="0.875"/><stop stop-opacity="1" stop-color="rgb(20.24231%, 9.092712%, 60.057068%)" offset="0.878906"/><stop stop-opacity="1" stop-color="rgb(19.993591%, 8.876038%, 59.916687%)" offset="0.882812"/><stop stop-opacity="1" stop-color="rgb(19.744873%, 8.657837%, 59.77478%)" offset="0.886719"/><stop stop-opacity="1" stop-color="rgb(19.497681%, 8.439636%, 59.634399%)" offset="0.890625"/><stop stop-opacity="1" stop-color="rgb(19.248962%, 8.221436%, 59.492493%)" offset="0.894531"/><stop stop-opacity="1" stop-color="rgb(19.00177%, 8.004761%, 59.352112%)" offset="0.898437"/><stop stop-opacity="1" stop-color="rgb(18.753052%, 7.78656%, 59.211731%)" offset="0.902344"/><stop stop-opacity="1" stop-color="rgb(18.505859%, 7.569885%, 59.07135%)" offset="0.90625"/><stop stop-opacity="1" stop-color="rgb(18.257141%, 7.351685%, 58.929443%)" offset="0.910156"/><stop stop-opacity="1" stop-color="rgb(18.008423%, 7.13501%, 58.789062%)" offset="0.914062"/><stop stop-opacity="1" stop-color="rgb(17.759705%, 6.916809%, 58.647156%)" offset="0.917969"/><stop stop-opacity="1" stop-color="rgb(17.512512%, 6.700134%, 58.506775%)" offset="0.921875"/><stop stop-opacity="1" stop-color="rgb(17.263794%, 6.481934%, 58.366394%)" offset="0.925781"/><stop stop-opacity="1" stop-color="rgb(17.016602%, 6.265259%, 58.226013%)" offset="0.929687"/><stop stop-opacity="1" stop-color="rgb(16.767883%, 6.047058%, 58.084106%)" offset="0.933594"/><stop stop-opacity="1" stop-color="rgb(16.519165%, 5.830383%, 57.943726%)" offset="0.9375"/><stop stop-opacity="1" stop-color="rgb(16.270447%, 5.612183%, 57.801819%)" offset="0.941406"/><stop stop-opacity="1" stop-color="rgb(16.023254%, 5.395508%, 57.661438%)" offset="0.945312"/><stop stop-opacity="1" stop-color="rgb(15.774536%, 5.177307%, 57.521057%)" offset="0.949219"/><stop stop-opacity="1" stop-color="rgb(15.527344%, 4.959106%, 57.380676%)" offset="0.953125"/><stop stop-opacity="1" stop-color="rgb(15.278625%, 4.740906%, 57.23877%)" offset="0.957031"/><stop stop-opacity="1" stop-color="rgb(15.031433%, 4.524231%, 57.098389%)" offset="0.960937"/><stop stop-opacity="1" stop-color="rgb(14.782715%, 4.30603%, 56.956482%)" offset="0.964844"/><stop stop-opacity="1" stop-color="rgb(14.533997%, 4.089355%, 56.816101%)" offset="0.96875"/><stop stop-opacity="1" stop-color="rgb(14.285278%, 3.871155%, 56.67572%)" offset="0.972656"/><stop stop-opacity="1" stop-color="rgb(14.038086%, 3.65448%, 56.535339%)" offset="0.976562"/><stop stop-opacity="1" stop-color="rgb(13.789368%, 3.436279%, 56.393433%)" offset="0.980469"/><stop stop-opacity="1" stop-color="rgb(13.542175%, 3.219604%, 56.253052%)" offset="0.984375"/><stop stop-opacity="1" stop-color="rgb(13.293457%, 3.001404%, 56.111145%)" offset="0.988281"/><stop stop-opacity="1" stop-color="rgb(13.046265%, 2.784729%, 55.970764%)" offset="0.992187"/><stop stop-opacity="1" stop-color="rgb(12.797546%, 2.566528%, 55.828857%)" offset="0.996094"/><stop stop-opacity="1" stop-color="rgb(12.548828%, 2.349854%, 55.688477%)" offset="1"/></linearGradient><clipPath id="90caf4ff22"><path d="M 76 10 L 83.546875 10 L 83.546875 18 L 76 18 Z M 76 10 " clip-rule="nonzero"/></clipPath><clipPath id="0b467d0c09"><path d="M 80 41 L 83.546875 41 L 83.546875 46.003906 L 80 46.003906 Z M 80 41 " clip-rule="nonzero"/></clipPath><clipPath id="7391e5d158"><path d="M 0.445312 37 L 83.546875 37 L 83.546875 39 L 0.445312 39 Z M 0.445312 37 " clip-rule="nonzero"/></clipPath></defs><g clip-path="url(#04d4b4d315)"><g clip-path="url(#1eb9204ad4)"><path fill="url(#33016985b7)" d="M 0.445312 0 L 0.445312 33.765625 L 29.164062 33.765625 L 29.164062 0 Z M 0.445312 0 " fill-rule="nonzero"/></g></g><path fill="#ffffff" d="M 39.773438 7.382812 L 39.773438 13.703125 C 39.773438 15.957031 38.164062 17.296875 36.105469 17.296875 C 34.042969 17.296875 32.53125 15.851562 32.53125 13.703125 C 32.53125 11.550781 33.984375 10.074219 36.015625 10.074219 C 37.023438 10.074219 37.75 10.4375 38.089844 10.875 L 38.089844 7.390625 L 39.773438 7.390625 Z M 36.148438 15.761719 C 37.328125 15.761719 38.097656 14.992188 38.097656 13.6875 C 38.097656 12.382812 37.328125 11.609375 36.148438 11.609375 C 34.96875 11.609375 34.214844 12.382812 34.214844 13.6875 C 34.214844 14.992188 34.984375 15.761719 36.148438 15.761719 Z M 36.148438 15.761719 " fill-opacity="1" fill-rule="nonzero"/><path fill="#ffffff" d="M 40.054688 10.1875 L 41.804688 10.1875 L 43.488281 15.027344 L 45.171875 10.1875 L 46.921875 10.1875 L 44.445312 17.1875 C 43.875 18.824219 43.464844 20.648438 41.109375 20.648438 L 41.109375 19.105469 C 42.050781 19.105469 42.808594 17.941406 42.464844 17.007812 Z M 40.054688 10.1875 " fill-opacity="1" fill-rule="nonzero"/><path fill="#ffffff" d="M 53.355469 13.019531 L 53.355469 17.195312 L 51.675781 17.195312 L 51.675781 13.0625 C 51.675781 12.070312 50.949219 11.617188 50.132812 11.617188 C 49.316406 11.617188 48.589844 12.0625 48.589844 13.0625 L 48.589844 17.195312 L 46.90625 17.195312 L 46.90625 13.019531 C 46.90625 11.804688 47.820312 10.0625 50.125 10.0625 C 52.429688 10.0625 53.34375 11.796875 53.34375 13.019531 Z M 53.355469 13.019531 " fill-opacity="1" fill-rule="nonzero"/><path fill="#ffffff" d="M 61.230469 13.714844 L 61.230469 17.1875 L 59.546875 17.1875 L 59.546875 16.511719 C 59.214844 16.949219 58.496094 17.3125 57.480469 17.3125 C 55.449219 17.3125 53.996094 15.859375 53.996094 13.6875 C 53.996094 11.515625 55.449219 10.089844 57.605469 10.089844 C 59.761719 10.089844 61.230469 11.542969 61.230469 13.714844 Z M 57.621094 11.632812 C 56.441406 11.632812 55.671875 12.402344 55.671875 13.707031 C 55.671875 15.015625 56.441406 15.785156 57.621094 15.785156 C 58.800781 15.785156 59.554688 15.015625 59.554688 13.707031 C 59.554688 12.402344 58.785156 11.632812 57.621094 11.632812 Z M 57.621094 11.632812 " fill-opacity="1" fill-rule="nonzero"/><path fill="#ffffff" d="M 67.675781 11.179688 C 68.113281 10.550781 68.839844 10.0625 70.054688 10.0625 C 72.367188 10.0625 73.273438 11.796875 73.273438 13.019531 L 73.273438 17.195312 L 71.589844 17.195312 L 71.589844 13.0625 C 71.589844 12.070312 70.863281 11.617188 70.046875 11.617188 C 69.230469 11.617188 68.503906 12.0625 68.503906 13.0625 L 68.503906 17.195312 L 66.820312 17.195312 L 66.820312 13.0625 C 66.820312 12.070312 66.09375 11.617188 65.28125 11.617188 C 64.464844 11.617188 63.738281 12.0625 63.738281 13.0625 L 63.738281 17.195312 L 62.054688 17.195312 L 62.054688 13.019531 C 62.054688 11.804688 62.964844 10.0625 65.273438 10.0625 C 66.488281 10.0625 67.222656 10.550781 67.652344 11.179688 Z M 67.675781 11.179688 " fill-opacity="1" fill-rule="nonzero"/><path fill="#ffffff" d="M 74.953125 7.234375 C 75.472656 7.234375 75.882812 7.660156 75.882812 8.164062 C 75.882812 8.695312 75.472656 9.105469 74.953125 9.105469 C 74.4375 9.105469 74.027344 8.695312 74.027344 8.164062 C 74.027344 7.660156 74.4375 7.234375 74.953125 7.234375 Z M 74.117188 10.1875 L 75.800781 10.1875 L 75.800781 17.1875 L 74.117188 17.1875 Z M 74.117188 10.1875 " fill-opacity="1" fill-rule="nonzero"/><g clip-path="url(#90caf4ff22)"><path fill="#ffffff" d="M 79.972656 15.777344 C 80.828125 15.777344 81.457031 15.371094 81.753906 14.65625 L 83.503906 14.65625 C 83.125 16.28125 81.820312 17.320312 79.988281 17.320312 C 77.816406 17.320312 76.363281 15.867188 76.363281 13.695312 C 76.363281 11.523438 77.816406 10.097656 79.988281 10.097656 C 81.8125 10.097656 83.125 11.121094 83.488281 12.714844 L 81.738281 12.714844 C 81.441406 12.027344 80.8125 11.640625 79.972656 11.640625 C 78.808594 11.640625 78.039062 12.410156 78.039062 13.714844 C 78.039062 15.019531 78.808594 15.792969 79.972656 15.792969 Z M 79.972656 15.777344 " fill-opacity="1" fill-rule="nonzero"/></g><path fill="#ffffff" d="M 33.570312 21.003906 C 34.085938 21.003906 34.496094 21.425781 34.496094 21.929688 C 34.496094 22.464844 34.085938 22.871094 33.570312 22.871094 C 33.050781 22.871094 32.640625 22.464844 32.640625 21.929688 C 32.640625 21.425781 33.050781 21.003906 33.570312 21.003906 Z M 32.730469 23.960938 L 34.414062 23.960938 L 34.414062 30.960938 L 32.730469 30.960938 Z M 32.730469 23.960938 " fill-opacity="1" fill-rule="nonzero"/><path fill="#ffffff" d="M 40.78125 24.957031 C 41.21875 24.324219 41.945312 23.835938 43.164062 23.835938 C 45.476562 23.835938 46.378906 25.570312 46.378906 26.796875 L 46.378906 30.96875 L 44.699219 30.96875 L 44.699219 26.839844 C 44.699219 25.847656 43.972656 25.394531 43.15625 25.394531 C 42.339844 25.394531 41.613281 25.839844 41.613281 26.839844 L 41.613281 30.96875 L 39.929688 30.96875 L 39.929688 26.839844 C 39.929688 25.847656 39.203125 25.394531 38.386719 25.394531 C 37.574219 25.394531 36.847656 25.839844 36.847656 26.839844 L 36.847656 30.96875 L 35.164062 30.96875 L 35.164062 26.796875 C 35.164062 25.578125 36.074219 23.835938 38.378906 23.835938 C 39.597656 23.835938 40.332031 24.324219 40.761719 24.957031 Z M 40.78125 24.957031 " fill-opacity="1" fill-rule="nonzero"/><path fill="#ffffff" d="M 47.175781 33.765625 L 47.175781 27.449219 C 47.175781 25.195312 48.78125 23.851562 50.828125 23.851562 C 52.875 23.851562 54.417969 25.296875 54.417969 27.449219 C 54.417969 29.597656 52.964844 31.074219 50.917969 31.074219 C 49.910156 31.074219 49.199219 30.710938 48.855469 30.273438 L 48.855469 33.757812 L 47.175781 33.757812 Z M 50.785156 25.394531 C 49.621094 25.394531 48.847656 26.164062 48.847656 27.46875 C 48.847656 28.773438 49.621094 29.546875 50.785156 29.546875 C 51.949219 29.546875 52.734375 28.773438 52.734375 27.46875 C 52.734375 26.164062 51.964844 25.394531 50.785156 25.394531 Z M 50.785156 25.394531 " fill-opacity="1" fill-rule="nonzero"/><path fill="#ffffff" d="M 62.210938 27.492188 L 62.210938 30.960938 L 60.527344 30.960938 L 60.527344 30.289062 C 60.191406 30.722656 59.472656 31.085938 58.457031 31.085938 C 56.425781 31.085938 54.972656 29.632812 54.972656 27.460938 C 54.972656 25.289062 56.425781 23.867188 58.585938 23.867188 C 60.742188 23.867188 62.210938 25.320312 62.210938 27.492188 Z M 58.597656 25.402344 C 57.421875 25.402344 56.648438 26.171875 56.648438 27.476562 C 56.648438 28.78125 57.421875 29.546875 58.597656 29.546875 C 59.777344 29.546875 60.535156 28.773438 60.535156 27.476562 C 60.535156 26.179688 59.761719 25.402344 58.597656 25.402344 Z M 58.597656 25.402344 " fill-opacity="1" fill-rule="nonzero"/><path fill="#ffffff" d="M 66.457031 29.546875 C 67.3125 29.546875 67.941406 29.136719 68.238281 28.425781 L 69.988281 28.425781 C 69.609375 30.050781 68.304688 31.085938 66.472656 31.085938 C 64.300781 31.085938 62.847656 29.632812 62.847656 27.460938 C 62.847656 25.289062 64.300781 23.867188 66.472656 23.867188 C 68.296875 23.867188 69.609375 24.890625 69.972656 26.484375 L 68.222656 26.484375 C 67.925781 25.792969 67.296875 25.410156 66.457031 25.410156 C 65.292969 25.410156 64.523438 26.179688 64.523438 27.484375 C 64.523438 28.789062 65.292969 29.554688 66.457031 29.554688 Z M 66.457031 29.546875 " fill-opacity="1" fill-rule="nonzero"/><path fill="#ffffff" d="M 74.101562 31.058594 C 71.804688 31.058594 70.589844 29.894531 70.589844 27.738281 L 70.589844 21.152344 L 72.269531 21.152344 L 72.269531 23.957031 L 73.863281 23.957031 L 73.863281 25.496094 L 72.269531 25.496094 L 72.269531 27.722656 C 72.269531 28.996094 72.789062 29.515625 74.101562 29.515625 Z M 74.101562 31.058594 " fill-opacity="1" fill-rule="nonzero"/><path fill="#c294ea" d="M 43.511719 40.125 L 43.511719 42.929688 C 43.511719 43.929688 42.800781 44.523438 41.886719 44.523438 C 40.976562 44.523438 40.300781 43.886719 40.300781 42.929688 C 40.300781 41.972656 40.945312 41.320312 41.851562 41.320312 C 42.296875 41.320312 42.621094 41.484375 42.769531 41.675781 L 42.769531 40.125 L 43.519531 40.125 Z M 41.902344 43.839844 C 42.421875 43.839844 42.761719 43.5 42.761719 42.921875 C 42.761719 42.34375 42.421875 42 41.902344 42 C 41.382812 42 41.042969 42.34375 41.042969 42.921875 C 41.042969 43.5 41.382812 43.839844 41.902344 43.839844 Z M 41.902344 43.839844 " fill-opacity="1" fill-rule="nonzero"/><path fill="#c294ea" d="M 44.71875 40.058594 C 44.949219 40.058594 45.128906 40.246094 45.128906 40.46875 C 45.128906 40.703125 44.949219 40.882812 44.71875 40.882812 C 44.488281 40.882812 44.3125 40.703125 44.3125 40.46875 C 44.3125 40.246094 44.488281 40.058594 44.71875 40.058594 Z M 44.347656 41.363281 L 45.089844 41.363281 L 45.089844 44.46875 L 44.347656 44.46875 Z M 44.347656 41.363281 " fill-opacity="1" fill-rule="nonzero"/><path fill="#c294ea" d="M 49.019531 44.351562 C 49.019531 45.175781 48.40625 45.753906 47.46875 45.753906 C 46.839844 45.753906 46.34375 45.484375 46.015625 45.078125 L 46.625 44.648438 C 46.796875 44.855469 47.046875 45.070312 47.476562 45.070312 C 47.988281 45.070312 48.277344 44.765625 48.277344 44.351562 L 48.277344 44.175781 C 48.128906 44.367188 47.8125 44.53125 47.359375 44.53125 C 46.460938 44.53125 45.808594 43.886719 45.808594 42.921875 C 45.808594 41.957031 46.453125 41.328125 47.410156 41.328125 C 48.367188 41.328125 49.019531 41.972656 49.019531 42.9375 L 49.019531 44.359375 Z M 47.417969 42 C 46.898438 42 46.558594 42.34375 46.558594 42.921875 C 46.558594 43.5 46.898438 43.839844 47.417969 43.839844 C 47.9375 43.839844 48.277344 43.5 48.277344 42.921875 C 48.277344 42.34375 47.9375 42 47.417969 42 Z M 47.417969 42 " fill-opacity="1" fill-rule="nonzero"/><path fill="#c294ea" d="M 50.199219 40.058594 C 50.429688 40.058594 50.605469 40.246094 50.605469 40.46875 C 50.605469 40.703125 50.429688 40.882812 50.199219 40.882812 C 49.96875 40.882812 49.792969 40.703125 49.792969 40.46875 C 49.792969 40.246094 49.96875 40.058594 50.199219 40.058594 Z M 49.828125 41.363281 L 50.570312 41.363281 L 50.570312 44.46875 L 49.828125 44.46875 Z M 49.828125 41.363281 " fill-opacity="1" fill-rule="nonzero"/><path fill="#c294ea" d="M 52.941406 44.515625 C 51.925781 44.515625 51.386719 44.003906 51.386719 43.039062 L 51.386719 40.117188 L 52.125 40.117188 L 52.125 41.355469 L 52.832031 41.355469 L 52.832031 42.039062 L 52.125 42.039062 L 52.125 43.023438 C 52.125 43.589844 52.355469 43.816406 52.941406 43.816406 Z M 52.941406 44.515625 " fill-opacity="1" fill-rule="nonzero"/><path fill="#c294ea" d="M 56.714844 42.9375 L 56.714844 44.476562 L 55.972656 44.476562 L 55.972656 44.179688 C 55.828125 44.375 55.507812 44.539062 55.054688 44.539062 C 54.15625 44.539062 53.503906 43.890625 53.503906 42.929688 C 53.503906 41.964844 54.152344 41.335938 55.105469 41.335938 C 56.0625 41.335938 56.714844 41.980469 56.714844 42.941406 Z M 55.113281 42.007812 C 54.59375 42.007812 54.253906 42.351562 54.253906 42.929688 C 54.253906 43.507812 54.59375 43.847656 55.113281 43.847656 C 55.632812 43.847656 55.972656 43.507812 55.972656 42.929688 C 55.972656 42.351562 55.632812 42.007812 55.113281 42.007812 Z M 55.113281 42.007812 " fill-opacity="1" fill-rule="nonzero"/><path fill="#c294ea" d="M 57.554688 40.125 L 58.296875 40.125 L 58.296875 44.46875 L 57.554688 44.46875 Z M 57.554688 40.125 " fill-opacity="1" fill-rule="nonzero"/><path fill="#c294ea" d="M 64.269531 42.9375 L 64.269531 44.476562 L 63.53125 44.476562 L 63.53125 44.179688 C 63.382812 44.375 63.0625 44.539062 62.609375 44.539062 C 61.714844 44.539062 61.0625 43.890625 61.0625 42.929688 C 61.0625 41.964844 61.707031 41.335938 62.664062 41.335938 C 63.617188 41.335938 64.269531 41.980469 64.269531 42.941406 Z M 62.667969 42.007812 C 62.152344 42.007812 61.808594 42.351562 61.808594 42.929688 C 61.808594 43.507812 62.152344 43.847656 62.667969 43.847656 C 63.1875 43.847656 63.53125 43.507812 63.53125 42.929688 C 63.53125 42.351562 63.1875 42.007812 62.667969 42.007812 Z M 62.667969 42.007812 " fill-opacity="1" fill-rule="nonzero"/><path fill="#c294ea" d="M 68.230469 44.351562 C 68.230469 45.175781 67.613281 45.753906 66.679688 45.753906 C 66.050781 45.753906 65.554688 45.484375 65.226562 45.078125 L 65.835938 44.648438 C 66.007812 44.855469 66.257812 45.070312 66.6875 45.070312 C 67.199219 45.070312 67.488281 44.765625 67.488281 44.351562 L 67.488281 44.175781 C 67.339844 44.367188 67.023438 44.53125 66.570312 44.53125 C 65.671875 44.53125 65.019531 43.886719 65.019531 42.921875 C 65.019531 41.957031 65.664062 41.328125 66.621094 41.328125 C 67.578125 41.328125 68.230469 41.972656 68.230469 42.9375 L 68.230469 44.359375 Z M 66.628906 42 C 66.109375 42 65.769531 42.34375 65.769531 42.921875 C 65.769531 43.5 66.109375 43.839844 66.628906 43.839844 C 67.148438 43.839844 67.488281 43.5 67.488281 42.921875 C 67.488281 42.34375 67.148438 42 66.628906 42 Z M 66.628906 42 " fill-opacity="1" fill-rule="nonzero"/><path fill="#c294ea" d="M 71.253906 43.507812 L 72.070312 43.507812 C 71.863281 44.136719 71.316406 44.523438 70.558594 44.523438 C 69.59375 44.523438 68.949219 43.878906 68.949219 42.914062 C 68.949219 41.949219 69.59375 41.320312 70.558594 41.320312 C 71.523438 41.320312 72.160156 41.957031 72.160156 42.914062 C 72.160156 43.003906 72.160156 43.085938 72.144531 43.160156 L 69.714844 43.160156 C 69.792969 43.589844 70.105469 43.832031 70.542969 43.832031 C 70.855469 43.832031 71.09375 43.714844 71.246094 43.5 Z M 71.328125 42.484375 C 71.195312 42.179688 70.921875 42.007812 70.550781 42.007812 C 70.179688 42.007812 69.90625 42.179688 69.773438 42.484375 Z M 71.328125 42.484375 " fill-opacity="1" fill-rule="nonzero"/><path fill="#c294ea" d="M 75.761719 42.625 L 75.761719 44.476562 L 75.015625 44.476562 L 75.015625 42.648438 C 75.015625 42.210938 74.6875 42.007812 74.332031 42.007812 C 73.976562 42.007812 73.648438 42.210938 73.648438 42.648438 L 73.648438 44.476562 L 72.910156 44.476562 L 72.910156 42.625 C 72.910156 42.082031 73.308594 41.3125 74.339844 41.3125 C 75.371094 41.3125 75.769531 42.082031 75.769531 42.625 Z M 75.761719 42.625 " fill-opacity="1" fill-rule="nonzero"/><path fill="#c294ea" d="M 78.113281 43.847656 C 78.492188 43.847656 78.773438 43.667969 78.898438 43.351562 L 79.679688 43.351562 C 79.507812 44.070312 78.9375 44.53125 78.121094 44.53125 C 77.15625 44.53125 76.511719 43.886719 76.511719 42.921875 C 76.511719 41.957031 77.15625 41.328125 78.121094 41.328125 C 78.929688 41.328125 79.515625 41.777344 79.671875 42.492188 L 78.890625 42.492188 C 78.757812 42.1875 78.484375 42.015625 78.105469 42.015625 C 77.59375 42.015625 77.246094 42.359375 77.246094 42.9375 C 77.246094 43.515625 77.585938 43.855469 78.105469 43.855469 Z M 78.113281 43.847656 " fill-opacity="1" fill-rule="nonzero"/><g clip-path="url(#0b467d0c09)"><path fill="#c294ea" d="M 80.078125 41.363281 L 80.855469 41.363281 L 81.597656 43.515625 L 82.347656 41.363281 L 83.125 41.363281 L 82.027344 44.46875 C 81.777344 45.195312 81.589844 46.003906 80.554688 46.003906 L 80.554688 45.324219 C 80.96875 45.324219 81.300781 44.8125 81.152344 44.390625 L 80.085938 41.363281 Z M 80.078125 41.363281 " fill-opacity="1" fill-rule="nonzero"/></g><g clip-path="url(#7391e5d158)"><path fill="#c294ea" d="M 0.820312 37.707031 L 83.125 37.707031 L 83.125 38.132812 L 0.820312 38.132812 Z M 0.820312 37.707031 " fill-opacity="1" fill-rule="nonzero"/></g></svg>